<?xml version="1.0" encoding="utf-8"?>
<!-- Generator: Adobe Illustrator 17.1.0, SVG Export Plug-In . SVG Version: 6.00 Build 0)  -->
<!DOCTYPE svg PUBLIC "-//W3C//DTD SVG 1.1//EN" "http://www.w3.org/Graphics/SVG/1.1/DTD/svg11.dtd">
<svg version="1.1" xmlns="http://www.w3.org/2000/svg" xmlns:xlink="http://www.w3.org/1999/xlink" x="0px" y="0px"
	 viewBox="0 0 470 420" style="enable-background:new 0 0 470 420;" width="470" height="420" xml:space="preserve">
<style type="text/css">
	.st0{fill:none;stroke:#36A9E1;stroke-width:1.5;}
	.st1{fill:none;stroke:#000;stroke-width:3;stroke-linecap:round;}
	.st2{font-family:'Liberation Sans','Arial','sans-serif';}
	.st3{font-size:20px;}
	.st4{font-size:12px;}
	.st5{font-size:14px;}
</style>
<g id="polar_grid">
	<g>
		<g>
			<path class="st0" d="M209.4,53c86,0,155.6,69.6,155.6,155.6s-69.6,155.6-155.6,155.6S53.8,294.6,53.8,208.6S123.4,53,209.4,53z"
				/>
			<path class="st0" d="M79.8,208.6c0,71.7,58,129.6,129.6,129.6S339,280.3,339,208.6S281.1,79,209.4,79S79.8,136.9,79.8,208.6z"/>
			<path class="st0" d="M209.4,104.9c57.3,0,103.7,46.4,103.7,103.7s-46.4,103.7-103.7,103.7s-103.7-46.4-103.7-103.7
				S152.1,104.9,209.4,104.9z"/>
			<path class="st0" d="M131.6,208.6c0,43,34.8,77.8,77.8,77.8s77.8-34.8,77.8-77.8s-34.8-77.8-77.8-77.8S131.6,165.6,131.6,208.6z"
				/>
			<path class="st0" d="M209.4,156.7c28.7,0,51.9,23.2,51.9,51.9s-23.2,51.9-51.9,51.9s-51.9-23.2-51.9-51.9
				S180.7,156.7,209.4,156.7z"/>
			<path class="st0" d="M183.5,208.6c0,14.3,11.6,25.9,25.9,25.9c14.3,0,25.9-11.6,25.9-25.9s-11.6-25.9-25.9-25.9
				C195.1,182.7,183.5,194.3,183.5,208.6z"/>
		</g>
		<g>
			<line class="st0" x1="209.4" y1="208.6" x2="209.4" y2="27.1"/>
			<line class="st0" x1="209.4" y1="208.6" x2="161.8" y2="33.4"/>
			<line class="st0" x1="209.4" y1="208.6" x2="118.6" y2="51.3"/>
			<line class="st0" x1="209.4" y1="208.6" x2="81" y2="81.2"/>
			<line class="st0" x1="209.4" y1="208.6" x2="51.6" y2="117.8"/>
			<line class="st0" x1="209.4" y1="208.6" x2="34.1" y2="161.4"/>
			<line class="st0" x1="209.4" y1="208.6" x2="27.9" y2="208.6"/>
			<line class="st0" x1="209.4" y1="208.6" x2="34.1" y2="256.9"/>
			<line class="st0" x1="209.4" y1="208.6" x2="52.4" y2="299.8"/>
			<line class="st0" x1="209.4" y1="208.6" x2="81" y2="337"/>
			<line class="st0" x1="209.4" y1="208.6" x2="119.7" y2="366.5"/>
			<line class="st0" x1="209.4" y1="208.6" x2="162.7" y2="384"/>
			<line class="st0" x1="209.4" y1="182.5" x2="209.4" y2="391.7"/>
			<line class="st0" x1="209.4" y1="208.6" x2="256.6" y2="383.9"/>
			<line class="st0" x1="209.4" y1="208.6" x2="300.4" y2="365.7"/>
			<line class="st0" x1="209.4" y1="208.6" x2="337.8" y2="337"/>
			<line class="st0" x1="209.4" y1="208.6" x2="367.2" y2="298.4"/>
			<line class="st0" x1="209.4" y1="208.6" x2="385" y2="254.9"/>
			<line class="st0" x1="209.4" y1="208.6" x2="385" y2="162.3"/>
			<line class="st0" x1="209.4" y1="208.6" x2="366.6" y2="117.8"/>
			<line class="st0" x1="209.4" y1="208.6" x2="337.8" y2="80.2"/>
			<line class="st0" x1="209.4" y1="208.6" x2="300.4" y2="51.5"/>
			<line class="st0" x1="209.4" y1="208.6" x2="257" y2="33.4"/>
			<g>
				<g>
					<line class="st1" x1="209.4" y1="208.6" x2="394.7" y2="208.6"/>
					<g>
						<polygon points="387.9,217.5 391.7,208.6 387.9,199.7 409,208.6 						"/>
					</g>
				</g>
			</g>
		</g>
	</g>
</g>
<g id="text">
	<text transform="matrix(1 0 0 1 418.4273 215.2973)" class="st2 st3">θ=0°</text>
	<text transform="matrix(1 0 0 1 237.1387 221.6411)" class="st2 st4">1</text>
	<text transform="matrix(1 0 0 1 262.7204 221.6411)" class="st2 st4">2</text>
	<text transform="matrix(1 0 0 1 288.3022 221.6411)" class="st2 st4">3</text>
	<text transform="matrix(1 0 0 1 313.8834 221.6411)" class="st2 st4">4</text>
	<text transform="matrix(1 0 0 1 339.4652 221.6411)" class="st2 st4">5</text>
	<text transform="matrix(1 0 0 1 365.0463 221.6411)" class="st2 st4">6</text>
	<text transform="matrix(1 0 0 1 200.6553 17.0774)" class="st2 st5">90°</text>
	<text transform="matrix(0.9659 0.2588 -0.2588 0.9659 250.5211 21.3413)" class="st2 st5">75°</text>
	<text transform="matrix(0.866 0.5 -0.5 0.866 297.5846 38.3664)" class="st2 st5">60°</text>
	<text transform="matrix(0.7071 0.7071 -0.7071 0.7071 338.6394 66.9923)" class="st2 st5">45°</text>
	<text transform="matrix(0.5 0.866 -0.866 0.5 370.8847 105.2682)" class="st2 st5">30°</text>
	<text transform="matrix(0.2588 0.9659 -0.9659 0.2588 392.1246 150.5855)" class="st2 st5">15°</text>
	<text transform="matrix(-0.2588 0.9659 -0.9659 -0.2588 397.6538 245.9619)" class="st2 st5">345°</text>
	<text transform="matrix(-0.5 0.866 -0.866 -0.5 381.5673 293.4132)" class="st2 st5">330°</text>
	<text transform="matrix(-0.7071 0.7071 -0.7071 -0.7071 353.7478 335.0852)" class="st2 st5">315°</text>
	<text transform="matrix(-0.866 0.5 -0.5 -0.866 316.091 368.1367)" class="st2 st5">300°</text>
	<text transform="matrix(-0.9659 0.2588 -0.2588 -0.9659 271.1637 390.3154)" class="st2 st5">285°</text>
	<text transform="matrix(-1 0 0 -1 222.0258 400.1118)" class="st2 st5">270°</text>
	<text transform="matrix(-0.9659 -0.2588 0.2588 -0.9659 172.0285 396.855)" class="st2 st5">265°</text>
	<text transform="matrix(-0.866 -0.5 0.5 -0.866 124.5773 380.7685)" class="st2 st5">240°</text>
	<text transform="matrix(-0.7071 -0.7071 0.7071 -0.7071 82.9044 352.949)" class="st2 st5">225°</text>
	<text transform="matrix(-0.5 -0.866 0.866 -0.5 49.8534 315.2922)" class="st2 st5">210°</text>
	<text transform="matrix(-0.2588 -0.9659 0.9659 -0.2588 27.6749 270.365)" class="st2 st5">195°</text>
	<text transform="matrix(-2.102853e-009 -1 1 -2.102853e-009 17.8807 221.227)" class="st2 st5">180°</text>
	<text transform="matrix(0.2588 -0.9659 0.9659 0.2588 21.1368 171.2277)" class="st2 st5">165°</text>
	<text transform="matrix(0.5 -0.866 0.866 0.5 37.2228 123.7766)" class="st2 st5">150°</text>
	<text transform="matrix(0.7071 -0.7071 0.7071 0.7071 65.0418 82.1056)" class="st2 st5">135°</text>
	<text transform="matrix(0.866 -0.5 0.5 0.866 102.6984 49.0546)" class="st2 st5">120°</text>
	<text transform="matrix(0.9659 -0.2588 0.2588 0.9659 147.6258 26.8763)" class="st2 st5">105°</text>
</g>
</svg>
